<svg xmlns="http://www.w3.org/2000/svg" viewBox="0 0 24 24" fill="none" stroke="currentColor" stroke-width="1.5" stroke-linecap="round" stroke-linejoin="round" width="24" height="24">
  <!-- Chef hat -->
  <path d="M6 8c0-2.5 1.5-4 3-4 0-2 1.5-3 3-3s3 1 3 3c1.5 0 3 1.5 3 4"/>
  <rect x="6" y="8" width="12" height="3" rx="0.5"/>
  <!-- Face -->
  <circle cx="12" cy="14" r="3"/>
  <!-- Eyes -->
  <circle cx="10.5" cy="13.5" r="0.3" fill="currentColor"/>
  <circle cx="13.5" cy="13.5" r="0.3" fill="currentColor"/>
  <!-- Smile -->
  <path d="M10.5 15c0.5 0.5 2.5 0.5 3 0"/>
  <!-- Body -->
  <path d="M8 18h8l1 5H7l1-5z"/>
  <!-- Buttons -->
  <circle cx="12" cy="20" r="0.3" fill="currentColor"/>
  <circle cx="12" cy="22" r="0.3" fill="currentColor"/>
</svg>
